<svg width="542" height="65" viewBox="0 0 542 65" fill="none" xmlns="http://www.w3.org/2000/svg">
<path d="M158.074 0.00590391L152.889 12.8979H132.29V25.8299H151.628L146.442 38.7219H132.29V51.6139H158.074L152.889 64.5459H132.29H119.358V38.7219V25.8299V0.00590391H158.074Z" fill="white"/>
<path d="M74.7578 0.00840635H61.8164V16.9004H74.7578V0.00840635ZM94.0817 0.00840635V25.8257H61.8164V64.5391H74.7578V38.7231H94.0817V64.5391H107.023V0.00840635H94.0817Z" fill="white"/>
<path d="M406.483 0.00492735H419.415V64.5449H406.483V0.00492735Z" fill="#70BE44"/>
<path d="M350.272 18.6029C346.495 22.4055 344.607 26.9642 344.607 32.2762C344.607 37.6149 346.495 42.1722 350.272 45.9482C354.049 49.7255 358.607 51.6135 363.945 51.6135C369.256 51.6135 373.813 49.7255 377.617 45.9482C381.421 42.1722 383.323 37.6149 383.323 32.2762C383.323 26.9642 381.421 22.4055 377.617 18.6029C373.813 14.7989 369.256 12.8975 363.945 12.8975C358.607 12.8975 354.049 14.7989 350.272 18.6029ZM386.727 9.49488C393.052 15.8202 396.215 23.4135 396.215 32.2762C396.215 41.1642 393.052 48.7642 386.727 55.0775C380.4 61.3909 372.807 64.5469 363.945 64.5469C355.056 64.5469 347.456 61.3909 341.143 55.0775C334.831 48.7642 331.675 41.1642 331.675 32.2762C331.675 23.4135 334.831 15.8202 341.143 9.49488C347.456 3.16821 355.056 0.00554787 363.945 0.00554787C372.807 0.00554787 380.4 3.16821 386.727 9.49488Z" fill="#70BE44"/>
<path d="M541.476 0.00590391L536.291 12.8979H520.155V64.5459H507.223V12.8979H491.087L496.272 0.00590391H541.476Z" fill="#70BE44"/>
<path d="M431.493 29.412L444.428 41.4707V64.5547H431.493V29.412Z" fill="#70BE44"/>
<path d="M483.151 47.1617V64.5537L444.427 29.2324V29.2924L431.494 17.3337V0.000379546L462.437 28.1977L483.151 47.1617Z" fill="#70BE44"/>
<path d="M483.147 35.2305V0.00646868H470.215V23.2358L483.147 35.2305Z" fill="#70BE44"/>
<path d="M316.7 6.6522C312.269 2.22154 306.944 0.00553702 300.724 0.00553702H291.076H278.143V22.5869V45.1682V64.5469H291.076V45.1682H291.127V32.2762H291.076V22.5869V12.8989H300.724C303.393 12.8989 305.676 13.8522 307.571 15.7602C309.467 17.6695 310.413 19.9442 310.413 22.5869C310.413 25.2562 309.467 27.5389 307.571 29.4335C305.676 31.3282 303.393 32.2762 300.724 32.2762H300.016V45.1682H300.724C306.944 45.1682 312.269 42.9602 316.7 38.5415C321.131 34.1242 323.347 28.8069 323.347 22.5869C323.347 16.3949 321.131 11.0829 316.7 6.6522Z" fill="#70BE44"/>
<path d="M251.399 24.7061L265.755 0.00605667H249.831L241.945 11.7474L251.399 24.7061Z" fill="white"/>
<path d="M255.113 44.8659L255.107 44.8712L236.671 19.6006L236.608 19.6939V0.00590391H223.675V64.5459H236.608V41.1912L253.103 64.5459H268.837L255.113 44.8659Z" fill="white"/>
<path d="M45.9213 45.9669C42.14 49.7295 37.5893 51.6135 32.2693 51.6135C26.932 51.6135 22.3747 49.7269 18.5973 45.9495C14.82 42.1722 12.932 37.6149 12.932 32.2762C12.932 26.9642 14.82 22.4055 18.5973 18.6029C22.3747 14.7989 26.932 12.8975 32.2693 12.8975C37.5493 12.8975 42.1107 14.7895 45.952 18.5722L51.1453 6.17621C49.1787 4.76687 47.072 3.54021 44.7813 2.54821C40.872 0.852206 36.7013 0.00553702 32.2693 0.00553702C23.3813 0.00553702 15.7813 3.16954 9.468 9.49487C3.15734 15.8202 0 23.4149 0 32.2762C0 41.1642 3.15734 48.7642 9.468 55.0775C15.7813 61.3909 23.3813 64.5469 32.2693 64.5469C36.7013 64.5469 40.872 63.6989 44.7813 62.0042C47.0627 61.0162 49.1627 59.7895 51.1213 58.3789L45.9213 45.9669Z" fill="white"/>
<path d="M208.166 45.9669C204.385 49.7295 199.834 51.6135 194.514 51.6135C189.177 51.6135 184.62 49.7269 180.842 45.9495C177.065 42.1722 175.177 37.6149 175.177 32.2762C175.177 26.9642 177.065 22.4055 180.842 18.6029C184.62 14.7989 189.177 12.8975 194.514 12.8975C199.794 12.8975 204.356 14.7895 208.197 18.5722L213.39 6.17621C211.425 4.76687 209.317 3.54021 207.026 2.54821C203.117 0.852206 198.946 0.00553702 194.514 0.00553702C185.626 0.00553702 178.026 3.16954 171.713 9.49487C165.402 15.8202 162.245 23.4149 162.245 32.2762C162.245 41.1642 165.402 48.7642 171.713 55.0775C178.026 61.3909 185.626 64.5469 194.514 64.5469C198.946 64.5469 203.117 63.6989 207.026 62.0042C209.308 61.0162 211.408 59.7895 213.366 58.3789L208.166 45.9669Z" fill="white"/>
</svg>
